<svg width="259" height="223" viewBox="0 0 259 223" fill="none" xmlns="http://www.w3.org/2000/svg">
<g clip-path="url(#clip0_1504_623)">
<path d="M188.498 0C175.644 0 161.606 6.60363 146.777 19.6227C139.755 25.7898 133.667 32.3894 129.099 37.6836C129.107 37.6916 129.115 37.6996 129.123 37.7116C129.135 37.6956 129.143 37.6876 129.143 37.6876C129.143 37.6876 136.349 45.5487 144.279 53.9624C148.548 48.8805 154.715 41.9445 161.806 35.7213C174.988 24.1439 183.598 21.7171 188.498 21.7171C206.988 21.7171 222.029 36.4101 222.029 54.467C222.029 72.4237 206.98 87.1047 188.474 87.2168C187.631 87.2168 186.547 87.1127 185.212 86.8164C190.604 89.1551 196.4 90.837 201.92 90.837C235.81 90.837 242.433 68.6794 242.885 67.1096C243.888 63.0489 244.42 58.82 244.42 54.471C244.416 24.4322 219.331 0 188.498 0Z" fill="url(#paint0_linear_1504_623)"/>
<path d="M70.107 108.926C82.9613 108.926 96.9987 102.322 111.828 89.3032C118.85 83.1361 124.938 76.5364 129.506 71.2423C129.498 71.2343 129.49 71.2263 129.482 71.2143C129.47 71.2303 129.462 71.2383 129.462 71.2383C129.462 71.2383 122.256 63.3772 114.326 54.9635C110.057 60.0454 103.89 66.9814 96.7989 73.2046C83.6168 84.782 75.0073 87.2088 70.107 87.2088C51.6169 87.2088 36.5762 72.5158 36.5762 54.4589C36.5762 36.5022 51.6249 21.8212 70.131 21.7091C70.9743 21.7091 72.0575 21.8132 73.3925 22.1095C68.0006 19.7708 62.2049 18.0889 56.6851 18.0889C22.7946 18.0889 16.1716 40.2465 15.7199 41.8163C14.7167 45.877 14.1851 50.1059 14.1851 54.4549C14.1891 84.4936 39.2742 108.926 70.107 108.926Z" fill="url(#paint1_linear_1504_623)"/>
<path d="M201.856 90.2844C184.505 89.8559 166.471 76.148 162.789 72.7401C153.285 63.9339 131.349 40.0903 129.626 38.2202C113.546 20.1833 91.7588 0 70.1071 0H70.0791H70.0512C43.731 0.132153 21.6116 17.9888 15.728 41.8244C16.1797 40.2545 24.8252 17.6764 56.6652 18.4613C74.0162 18.8898 92.1385 32.7819 95.8158 36.1898C105.321 44.996 127.264 68.8436 128.979 70.7138C145.059 88.7466 166.846 108.926 188.498 108.926H188.526H188.554C214.874 108.794 236.994 90.9371 242.877 67.1016C242.429 68.6714 233.696 91.0693 201.856 90.2844Z" fill="#29ABE2"/>
<path d="M7.405 170C8.23343 170 8.905 169.328 8.905 168.5V143.14C8.905 142.311 8.23343 141.64 7.405 141.64H4.805C3.97657 141.64 3.305 142.311 3.305 143.14V168.5C3.305 169.328 3.97657 170 4.805 170H7.405Z" fill="black"/>
<path d="M47.4316 170C48.26 170 48.9316 169.328 48.9316 168.5V143.14C48.9316 142.311 48.26 141.64 47.4316 141.64H44.9116C44.0831 141.64 43.4116 142.311 43.4116 143.14V160.4L32.1998 142.575C31.8337 141.993 31.1944 141.64 30.5068 141.64H26.2316C25.4031 141.64 24.7316 142.311 24.7316 143.14V168.5C24.7316 169.328 25.4031 170 26.2316 170H28.7516C29.58 170 30.2516 169.328 30.2516 168.5V149.88L42.5415 169.078C42.9092 169.652 43.5441 170 44.2259 170H47.4316Z" fill="black"/>
<path d="M84.0909 146.88C84.9194 146.88 85.5909 146.208 85.5909 145.38V143.14C85.5909 142.311 84.9194 141.64 84.0909 141.64H63.6109C62.7825 141.64 62.1109 142.311 62.1109 143.14V145.38C62.1109 146.208 62.7825 146.88 63.6109 146.88H71.0709V168.5C71.0709 169.328 71.7425 170 72.5709 170H75.1309C75.9594 170 76.6309 169.328 76.6309 168.5V146.88H84.0909Z" fill="black"/>
<path d="M115.017 170C115.845 170 116.517 169.328 116.517 168.5V166.3C116.517 165.471 115.845 164.8 115.017 164.8H104.277V158.24H113.857C114.685 158.24 115.357 157.568 115.357 156.74V154.82C115.357 153.991 114.685 153.32 113.857 153.32H104.277V146.84H115.017C115.845 146.84 116.517 146.168 116.517 145.34V143.14C116.517 142.311 115.845 141.64 115.017 141.64H100.257C99.4281 141.64 98.7566 142.311 98.7566 143.14V168.5C98.7566 169.328 99.4281 170 100.257 170H115.017Z" fill="black"/>
<path d="M144.703 169.18C144.959 169.683 145.476 170 146.04 170H148.801C149.929 170 150.653 168.802 150.129 167.804L145.201 158.4C148.921 157.32 151.241 154.32 151.241 150.36C151.241 145.44 147.721 141.64 142.201 141.64H132.621C131.792 141.64 131.121 142.311 131.121 143.14V168.5C131.121 169.328 131.792 170 132.621 170H135.181C136.009 170 136.681 169.328 136.681 168.5V159.08H139.561L144.703 169.18ZM136.681 154.32V146.44H141.161C143.961 146.44 145.601 148 145.601 150.4C145.601 152.72 143.961 154.32 141.161 154.32H136.681Z" fill="black"/>
<path d="M188.216 170C189.044 170 189.716 169.328 189.716 168.5V143.14C189.716 142.311 189.044 141.64 188.216 141.64H185.696C184.868 141.64 184.196 142.311 184.196 143.14V160.4L172.984 142.575C172.618 141.993 171.979 141.64 171.291 141.64H167.016C166.188 141.64 165.516 142.311 165.516 143.14V168.5C165.516 169.328 166.188 170 167.016 170H169.536C170.364 170 171.036 169.328 171.036 168.5V149.88L183.326 169.078C183.694 169.652 184.328 170 185.01 170H188.216Z" fill="black"/>
<path d="M221.835 170C222.664 170 223.335 169.328 223.335 168.5V166.3C223.335 165.471 222.664 164.8 221.835 164.8H211.095V158.24H220.675C221.504 158.24 222.175 157.568 222.175 156.74V154.82C222.175 153.991 221.504 153.32 220.675 153.32H211.095V146.84H221.835C222.664 146.84 223.335 146.168 223.335 145.34V143.14C223.335 142.311 222.664 141.64 221.835 141.64H207.075C206.247 141.64 205.575 142.311 205.575 143.14V168.5C205.575 169.328 206.247 170 207.075 170H221.835Z" fill="black"/>
<path d="M257.239 146.88C258.068 146.88 258.739 146.208 258.739 145.38V143.14C258.739 142.311 258.068 141.64 257.239 141.64H236.759C235.931 141.64 235.259 142.311 235.259 143.14V145.38C235.259 146.208 235.931 146.88 236.759 146.88H244.219V168.5C244.219 169.328 244.891 170 245.719 170H248.279C249.108 170 249.779 169.328 249.779 168.5V146.88H257.239Z" fill="black"/>
<path d="M14.52 222.6C21.6665 222.6 25.6856 218.344 27.214 214.319C27.4975 213.572 27.04 212.778 26.2753 212.547L23.935 211.84C23.1346 211.598 22.3015 212.065 21.9292 212.814C20.818 215.049 18.513 217.2 14.52 217.2C9.96 217.2 5.72 213.88 5.72 207.84C5.72 201.4 10.2 198.36 14.44 198.36C18.4608 198.36 20.665 200.364 21.7076 202.581C22.0753 203.363 22.9358 203.86 23.7599 203.601L26.1018 202.862C26.8549 202.624 27.3038 201.84 27.0303 201.099C25.4996 196.953 21.5187 193.04 14.44 193.04C6.84 193.04 0 198.8 0 207.84C0 216.88 6.6 222.6 14.52 222.6Z" fill="black"/>
<path d="M41.1544 207.8C41.1544 201.4 45.6344 198.36 49.9944 198.36C54.3944 198.36 58.8744 201.4 58.8744 207.8C58.8744 214.2 54.3944 217.24 49.9944 217.24C45.6344 217.24 41.1544 214.2 41.1544 207.8ZM35.4344 207.84C35.4344 216.96 42.3144 222.6 49.9944 222.6C57.7144 222.6 64.5944 216.96 64.5944 207.84C64.5944 198.68 57.7144 193.04 49.9944 193.04C42.3144 193.04 35.4344 198.68 35.4344 207.84Z" fill="black"/>
<path d="M104.876 222C105.705 222 106.376 221.328 106.376 220.5V195.64C106.376 194.535 105.481 193.64 104.376 193.64H100.202C99.3886 193.64 98.6559 194.133 98.3496 194.887L90.5363 214.12L82.5287 194.872C82.2184 194.126 81.4899 193.64 80.6821 193.64H76.7363C75.6317 193.64 74.7363 194.535 74.7363 195.64V220.5C74.7363 221.328 75.4078 222 76.2363 222H78.5163C79.3447 222 80.0163 221.328 80.0163 220.5V202.28L87.7929 221.073C88.0249 221.634 88.572 222 89.1789 222H91.7705C92.379 222 92.9271 221.632 93.1582 221.069L100.936 202.12V220.5C100.936 221.328 101.608 222 102.436 222H104.876Z" fill="black"/>
<path d="M123.777 206.56V198.44H128.137C130.897 198.44 132.577 200 132.577 202.52C132.577 204.96 130.897 206.56 128.137 206.56H123.777ZM128.818 211.32C134.418 211.32 138.137 207.64 138.137 202.48C138.137 197.36 134.418 193.64 128.818 193.64H119.717C118.889 193.64 118.217 194.311 118.217 195.14V220.5C118.217 221.328 118.889 222 119.717 222H122.238C123.066 222 123.738 221.328 123.738 220.5V211.32H128.818Z" fill="black"/>
<path d="M158.276 222.64C164.356 222.64 169.196 218.92 169.196 211.96V195.14C169.196 194.311 168.525 193.64 167.696 193.64H165.176C164.348 193.64 163.676 194.311 163.676 195.14V211.56C163.676 215.28 161.636 217.24 158.276 217.24C154.996 217.24 152.916 215.28 152.916 211.56V195.14C152.916 194.311 152.245 193.64 151.416 193.64H148.896C148.068 193.64 147.396 194.311 147.396 195.14V211.96C147.396 218.92 152.236 222.64 158.276 222.64Z" fill="black"/>
<path d="M200.105 198.88C200.933 198.88 201.605 198.208 201.605 197.38V195.14C201.605 194.311 200.933 193.64 200.105 193.64H179.625C178.797 193.64 178.125 194.311 178.125 195.14V197.38C178.125 198.208 178.797 198.88 179.625 198.88H187.085V220.5C187.085 221.328 187.757 222 188.585 222H191.145C191.973 222 192.645 221.328 192.645 220.5V198.88H200.105Z" fill="black"/>
<path d="M227.031 222C227.859 222 228.531 221.328 228.531 220.5V218.3C228.531 217.471 227.859 216.8 227.031 216.8H216.291V210.24H225.871C226.699 210.24 227.371 209.568 227.371 208.74V206.82C227.371 205.991 226.699 205.32 225.871 205.32H216.291V198.84H227.031C227.859 198.84 228.531 198.168 228.531 197.34V195.14C228.531 194.311 227.859 193.64 227.031 193.64H212.271C211.442 193.64 210.771 194.311 210.771 195.14V220.5C210.771 221.328 211.442 222 212.271 222H227.031Z" fill="black"/>
<path d="M252.717 221.18C252.973 221.683 253.49 222 254.054 222H256.815C257.943 222 258.667 220.802 258.143 219.804L253.215 210.4C256.935 209.32 259.255 206.32 259.255 202.36C259.255 197.44 255.735 193.64 250.215 193.64H239.135V220.5C239.135 221.328 239.806 222 240.635 222H243.195C244.023 222 244.695 221.328 244.695 220.5V211.08H247.575L252.717 221.18ZM244.695 206.32V198.44H249.175C251.975 198.44 253.615 200 253.615 202.4C253.615 204.72 251.975 206.32 249.175 206.32H244.695Z" fill="black"/>
</g>
<defs>
<linearGradient id="paint0_linear_1504_623" x1="159.39" y1="7.18214" x2="235.567" y2="85.9155" gradientUnits="userSpaceOnUse">
<stop offset="0.21" stop-color="#F15A24"/>
<stop offset="0.6841" stop-color="#FBB03B"/>
</linearGradient>
<linearGradient id="paint1_linear_1504_623" x1="99.2154" y1="101.744" x2="23.0381" y2="23.0104" gradientUnits="userSpaceOnUse">
<stop offset="0.21" stop-color="#ED1E79"/>
<stop offset="0.8929" stop-color="#522785"/>
</linearGradient>
<clipPath id="clip0_1504_623">
<rect width="259" height="223" fill="white"/>
</clipPath>
</defs>
</svg>
